<svg width="551" height="122" viewBox="0 0 551 122" fill="none" xmlns="http://www.w3.org/2000/svg">
<path d="M8.16 52V29.46H33.64V52H41.34V1.74H33.64V22.74H8.16V1.74H0.46V52H8.16ZM73.2064 33.17L91.3364 1.74H83.4964L69.5664 25.96L55.7764 1.74H47.3764L65.4364 33.17V52H73.2064V33.17ZM114.755 34.5C126.025 34.5 133.305 28.55 133.305 17.98C133.305 7.48 126.025 1.74 114.755 1.74H97.3252V52H105.025V34.5H114.755ZM114.685 8.25C121.475 8.25 125.605 11.82 125.605 18.05C125.605 24.28 121.475 27.99 114.685 27.99H105.025V8.25H114.685ZM172.857 45.28H148.707V29.46H170.267V22.74H148.707V8.46H172.367V1.74H141.007V52H172.857V45.28ZM189.586 52V33.1H198.826L211.356 52H220.596L206.946 31.98C214.576 30.16 219.126 24.63 219.126 17.42C219.126 7.41 212.196 1.74 200.646 1.74H181.886V52H189.586ZM189.586 8.18H200.156C207.296 8.18 211.356 11.4 211.356 17.42C211.356 23.51 207.296 26.66 200.156 26.66H189.586V8.18ZM235.728 52V29.46H261.208V52H268.908V1.74H261.208V22.74H235.728V1.74H228.028V52H235.728ZM287.545 52V1.74H279.845V52H287.545ZM314.329 52C330.009 52 339.599 41.15 339.599 26.66C339.599 11.96 330.359 1.74 314.329 1.74H298.439V52H314.329ZM306.139 8.39H313.979C325.599 8.39 331.759 15.32 331.759 26.66C331.759 38.21 325.529 45.35 313.979 45.35H306.139V8.39ZM355.357 52V33.1H364.597L377.127 52H386.367L372.717 31.98C380.347 30.16 384.897 24.63 384.897 17.42C384.897 7.41 377.967 1.74 366.417 1.74H347.657V52H355.357ZM355.357 8.18H365.927C373.067 8.18 377.127 11.4 377.127 17.42C377.127 23.51 373.067 26.66 365.927 26.66H355.357V8.18ZM415.863 53.05C430.423 53.05 441.413 41.64 441.413 26.8C441.413 11.96 430.423 0.689997 415.863 0.689997C401.303 0.689997 390.313 11.96 390.313 26.8C390.313 41.64 401.303 53.05 415.863 53.05ZM415.863 46.12C405.223 46.12 398.293 37.58 398.293 26.8C398.293 16.02 405.223 7.62 415.863 7.62C426.503 7.62 433.433 16.02 433.433 26.8C433.433 37.58 426.503 46.12 415.863 46.12ZM486.126 37.3C486.126 29.81 481.296 26.03 472.686 24.28L465.266 22.81C460.576 21.83 456.446 20.15 456.446 15.39C456.446 11.05 460.016 7.2 466.526 7.2C472.826 7.2 477.166 11.4 477.586 17.42H485.426C484.796 7.41 476.886 1.04 466.456 1.04C456.026 1.04 448.606 7.41 448.606 15.88C448.606 24.42 455.046 27.99 462.116 29.39L469.396 30.79C475.206 32.05 477.936 34.15 477.936 38.35C477.936 43.53 473.176 46.54 466.806 46.54C459.106 46.54 455.046 42.41 454.696 36.04H446.856C447.486 46.05 454.836 52.7 466.946 52.7C479.126 52.7 486.126 46.05 486.126 37.3ZM502.74 52V1.74H495.04V52H502.74ZM550.384 37.3C550.384 29.81 545.554 26.03 536.944 24.28L529.524 22.81C524.834 21.83 520.704 20.15 520.704 15.39C520.704 11.05 524.274 7.2 530.784 7.2C537.084 7.2 541.424 11.4 541.844 17.42H549.684C549.054 7.41 541.144 1.04 530.714 1.04C520.284 1.04 512.864 7.41 512.864 15.88C512.864 24.42 519.304 27.99 526.374 29.39L533.654 30.79C539.464 32.05 542.194 34.15 542.194 38.35C542.194 43.53 537.434 46.54 531.064 46.54C523.364 46.54 519.304 42.41 518.954 36.04H511.114C511.744 46.05 519.094 52.7 531.204 52.7C543.384 52.7 550.384 46.05 550.384 37.3ZM8.16 122V99.46H33.64V122H41.34V71.74H33.64V92.74H8.16V71.74H0.46V122H8.16ZM84.1264 115.28H59.9764V99.46H81.5364V92.74H59.9764V78.46H83.6364V71.74H52.2764V122H84.1264V115.28ZM123.605 122V115.07H100.855V71.74H93.1553V122H123.605ZM148.593 104.5C159.863 104.5 167.143 98.55 167.143 87.98C167.143 77.48 159.863 71.74 148.593 71.74H131.163V122H138.863V104.5H148.593ZM148.523 78.25C155.313 78.25 159.443 81.82 159.443 88.05C159.443 94.28 155.313 97.99 148.523 97.99H138.863V78.25H148.523ZM195.775 115.63V101.35H209.985V95.26H195.775V81.12H189.195V95.26H174.985V101.35H189.195V115.63H195.775Z" fill="#214BC7"/>
</svg>
