<?xml version="1.0" standalone="no"?>
<!DOCTYPE svg PUBLIC "-//W3C//DTD SVG 20010904//EN"
 "http://www.w3.org/TR/2001/REC-SVG-20010904/DTD/svg10.dtd">
<svg version="1.0" xmlns="http://www.w3.org/2000/svg"
 width="700.000000pt" height="700.000000pt" viewBox="0 0 700.000000 700.000000"
 preserveAspectRatio="xMidYMid meet">
<metadata>
Created by potrace 1.14, written by Peter Selinger 2001-2017
</metadata>
<g transform="translate(0.000000,700.000000) scale(0.100000,-0.100000)"
fill="#000000" stroke="none">
<path d="M2975 6400 l-30 -5 1 -1175 c1 -646 -2 -1179 -7 -1185 -5 -7 -413
-10 -1193 -9 l-1186 1 0 -511 0 -511 1186 0 c779 0 1188 -3 1193 -10 5 -5 8
-540 7 -1188 -1 -649 2 -1184 6 -1190 5 -8 160 -11 552 -12 l546 0 0 1200 0
1200 1194 0 1195 0 -2 510 -2 510 -1190 1 -1190 0 -3 1187 c-1 653 -5 1187
-10 1187 -59 4 -1045 4 -1067 0z"/>
</g>
</svg>
